<svg xmlns="http://www.w3.org/2000/svg" viewBox="0 0 1448 1086" fill="none">
<!-- Placeholder: replace with a real photo (hard drive, SSD, flash drive). -->
<rect x="330" y="220" width="460" height="600" rx="36" fill="#1d1f22"/>
<circle cx="560" cy="440" r="170" fill="#3a3d42"/>
<circle cx="560" cy="440" r="150" stroke="#55595f" stroke-width="4"/>
<circle cx="560" cy="440" r="36" fill="#9ea3aa"/>
<path d="M700 690 600 470" stroke="#d9dce0" stroke-width="22" stroke-linecap="round"/>
<circle cx="700" cy="690" r="26" fill="#9ea3aa"/>
<rect x="850" y="330" width="300" height="190" rx="18" fill="#fff4ea" stroke="#1d1f22" stroke-width="10"/>
<rect x="880" y="360" width="80" height="50" rx="6" fill="#ff5000"/>
<g fill="#1d1f22"><rect x="990" y="370" width="130" height="12" rx="6"/><rect x="990" y="400" width="100" height="12" rx="6"/><rect x="880" y="440" width="240" height="12" rx="6"/><rect x="880" y="470" width="180" height="12" rx="6"/></g>
<rect x="890" y="600" width="120" height="220" rx="22" fill="#ff5000"/>
<rect x="915" y="560" width="70" height="50" rx="8" fill="#c6cace"/>
<path d="M1060 690a90 90 0 1 1 26 -64" stroke="#e74700" stroke-width="14" stroke-linecap="round" fill="none"/>
<path d="M1096 596l-8 36-36-10" stroke="#e74700" stroke-width="14" stroke-linecap="round" stroke-linejoin="round" fill="none"/>
<rect x="404" y="880" width="640" height="70" rx="35" fill="#fffefd" stroke="#ff5000" stroke-width="3" stroke-dasharray="10 8"/>
<text x="724" y="925" text-anchor="middle" font-family="Arial, sans-serif" font-size="30" font-weight="700" fill="#e74700">Фото скоро появится</text>
</svg>
