<svg xmlns="http://www.w3.org/2000/svg" viewBox="0 0 1448 1086" fill="none">
<defs><linearGradient id="screen" x1="0" y1="0" x2="1" y2="1"><stop offset="0" stop-color="#ff9a3c"/><stop offset=".55" stop-color="#ff5412"/><stop offset="1" stop-color="#d4101e"/></linearGradient><radialGradient id="peel" cx=".35" cy=".3" r=".8"><stop offset="0" stop-color="#ffb347"/><stop offset=".6" stop-color="#ff7a0a"/><stop offset="1" stop-color="#e2500a"/></radialGradient><linearGradient id="metal" x1="0" y1="0" x2="0" y2="1"><stop offset="0" stop-color="#d9dce0"/><stop offset="1" stop-color="#9ea3aa"/></linearGradient></defs>
<rect x="250" y="170" width="940" height="600" rx="28" fill="#1d1f22"/>
<rect x="282" y="202" width="876" height="536" rx="6" fill="url(#screen)"/>
<circle cx="720" cy="186" r="6" fill="#3a3d42"/>
<path d="M150 790h1140l-40 58H190z" fill="url(#metal)"/>
<rect x="150" y="770" width="1140" height="26" rx="10" fill="#c6cace"/>
<path d="M640 790h160l-12 18H652z" fill="#8a8f96"/>
<g transform="translate(1170 790)"><ellipse cx="0" cy="8" rx="112" ry="104" fill="url(#peel)"/><ellipse cx="-34" cy="-34" rx="38" ry="24" fill="#fff" opacity=".22"/><path d="M4-92c-2-18 4-32 14-40" stroke="#5b7a2a" stroke-width="10" stroke-linecap="round" fill="none"/><path d="M14-122c38-38 104-34 120-10-34 34-92 38-120 10z" fill="#3f8a2e"/><path d="M14-122c40-6 80-10 118-10" stroke="#2c6a20" stroke-width="4" fill="none"/></g>
</svg>
