<svg xmlns="http://www.w3.org/2000/svg" width="256" height="320" viewBox="0 0 256 320" fill="none">
  <title>Мандарин с ноутбуком и телефоном</title>
  <defs>
    <linearGradient id="fruit" x1="53" y1="112" x2="205" y2="293" gradientUnits="userSpaceOnUse">
      <stop stop-color="#FFBB24"/>
      <stop offset=".48" stop-color="#FF800B"/>
      <stop offset="1" stop-color="#F34424"/>
    </linearGradient>
    <radialGradient id="leaf" cx=".3" cy=".25" r=".85"><stop stop-color="#9DD15C"/><stop offset=".4" stop-color="#54AB38"/><stop offset="1" stop-color="#176A3B"/></radialGradient>
  </defs>

  <circle cx="128" cy="198" r="113" fill="url(#fruit)"/>
  <g stroke="white" stroke-width="5.5" stroke-linecap="round" stroke-linejoin="round">
    <rect x="77" y="147" width="120" height="79" rx="8" fill="white" fill-opacity=".08"/>
    <path d="M73 226H201L210 238C211 240 209 242 206 242H72C69 242 67 240 68 238Z" fill="white"/>
    <path d="M127 229H151" stroke="#FF8C16" stroke-width="3"/>
    <path d="M92 168H110M92 177H101" stroke-width="3" opacity=".55"/>
  </g>
  <rect x="41" y="172" width="56" height="87" rx="12" fill="url(#fruit)"/>
  <rect x="47" y="176" width="45" height="78" rx="8" fill="white"/>
  <rect x="51" y="180" width="37" height="70" rx="5" fill="url(#fruit)"/>
  <path d="M61 180H78V184C78 186 76 187 74 187H65C63 187 61 186 61 184Z" fill="white"/>
  <path d="M64 243H75" stroke="white" stroke-width="3" stroke-linecap="round"/>
  <path d="M57 198V210" stroke="white" stroke-opacity=".5" stroke-width="2.5" stroke-linecap="round"/>
  <path d="M127 89C128 83 128 77 130 72" stroke="#398539" stroke-width="5.5" stroke-linecap="round"/>
  <path d="M129 76L130 73" stroke="#91BC64" stroke-width="2" stroke-linecap="round"/>
  <g>
    <path d="M127 82C91 96 67 120 54 151C47 168 43 188 42 209C62 189 78 165 93 137C107 111 119 94 127 82Z" fill="url(#leaf)"/>
    <path d="M124 86C95 112 70 155 44 204C64 184 79 160 93 137C107 111 118 96 124 86Z" fill="#164F2D" opacity=".16"/>
    <path d="M121 90C96 116 69 159 46 201" stroke="#D0E994" stroke-opacity=".55" stroke-width="1.8" stroke-linecap="round"/>
    <path d="M98 117L85 122M81 144L86 127M64 173L54 175M55 187L63 174" stroke="#D0E994" stroke-opacity=".18" stroke-width="1.2" stroke-linecap="round"/>
  </g>
</svg>
