<svg xmlns="http://www.w3.org/2000/svg" width="256" height="320" viewBox="0 0 256 320" fill="none">
  <title>Мандарин с контурной шестерёнкой</title>
  <defs>
    <linearGradient id="fruit" x1="52" y1="100" x2="210" y2="294" gradientUnits="userSpaceOnUse">
      <stop stop-color="#FFA609"/>
      <stop offset=".48" stop-color="#FF7108"/>
      <stop offset="1" stop-color="#FF3020"/>
    </linearGradient>
    <linearGradient id="leaf" x1="142" y1="79" x2="216" y2="20" gradientUnits="userSpaceOnUse">
      <stop stop-color="#48A92B"/>
      <stop offset="1" stop-color="#299421"/>
    </linearGradient>
  </defs>
  <circle cx="128" cy="198" r="114" fill="url(#fruit)"/>
  <path d="M124 79C127 34 166 13 229 14C220 54 198 87 154 79C160 62 177 48 190 40C162 48 140 64 130 80Z" fill="url(#leaf)"/>
  <g opacity="0.5" transform="translate(128 198) scale(0.75) translate(-128 -198)">
  <polygon points="104.66,141.64 114.28,138.56 115.49,118.98 140.51,118.98 141.72,138.56 151.34,141.64 160.33,146.27 175.02,133.28 192.72,150.98 179.73,165.67 184.36,174.66 187.44,184.28 207.02,185.49 207.02,210.51 187.44,211.72 184.36,221.34 179.73,230.33 192.72,245.02 175.02,262.72 160.33,249.73 151.34,254.36 141.72,257.44 140.51,277.02 115.49,277.02 114.28,257.44 104.66,254.36 95.67,249.73 80.98,262.72 63.28,245.02 76.27,230.33 71.64,221.34 68.56,211.72 48.98,210.51 48.98,185.49 68.56,184.28 71.64,174.66 76.27,165.67 63.28,150.98 80.98,133.28 95.67,146.27" stroke="#000000" stroke-width="6" stroke-linejoin="round"/>
  <circle cx="128" cy="198" r="39" stroke="#000000" stroke-width="6"/>
  </g>
</svg>
